<svg width="118" height="20" viewBox="0 0 118 20" fill="none" xmlns="http://www.w3.org/2000/svg">
<path d="M0.26 18.72H0.4C0.549333 18.72 0.68 18.6733 0.792 18.58C0.904 18.468 0.997333 18.3373 1.072 18.188C1.16533 18.0387 1.23067 17.88 1.268 17.712C1.324 17.544 1.352 17.3853 1.352 17.236V2.256C1.352 2.12533 1.324 1.976 1.268 1.808C1.23067 1.64 1.16533 1.48133 1.072 1.332C0.997333 1.18267 0.904 1.06133 0.792 0.967999C0.68 0.855999 0.549333 0.799999 0.4 0.799999H0.26V0.519999H4.292V0.799999H4.152C4.00267 0.799999 3.872 0.855999 3.76 0.967999C3.648 1.06133 3.55467 1.18267 3.48 1.332C3.40533 1.48133 3.34 1.64 3.284 1.808C3.24667 1.976 3.228 2.12533 3.228 2.256V17.964H9.36C9.71467 17.964 10.0227 17.88 10.284 17.712C10.5453 17.544 10.76 17.3387 10.928 17.096C11.1147 16.8347 11.2453 16.564 11.32 16.284C11.4133 15.9853 11.46 15.7147 11.46 15.472H11.74V19H0.26V18.72ZM26.5632 0.24C28.0192 0.24 29.3259 0.501333 30.4832 1.024C31.6405 1.528 32.6205 2.21867 33.4232 3.096C34.2445 3.95467 34.8699 4.96267 35.2992 6.12C35.7472 7.25867 35.9712 8.45333 35.9712 9.704C35.9712 11.104 35.7099 12.392 35.1872 13.568C34.6832 14.744 33.9832 15.752 33.0872 16.592C32.1912 17.432 31.1459 18.0947 29.9512 18.58C28.7752 19.0467 27.5152 19.28 26.1712 19.28C24.7339 19.28 23.4365 19.0187 22.2792 18.496C21.1405 17.9733 20.1699 17.2827 19.3672 16.424C18.5832 15.5653 17.9765 14.576 17.5472 13.456C17.1179 12.336 16.9032 11.1693 16.9032 9.956C16.9032 8.76133 17.1179 7.58533 17.5472 6.428C17.9765 5.252 18.6019 4.20667 19.4232 3.292C20.2632 2.37733 21.2805 1.64 22.4752 1.08C23.6699 0.519999 25.0325 0.24 26.5632 0.24ZM26.5352 18.3C27.7859 18.244 28.8779 17.964 29.8112 17.46C30.7632 16.9373 31.5565 16.284 32.1912 15.5C32.8259 14.6973 33.2925 13.82 33.5912 12.868C33.9085 11.916 34.0672 10.9733 34.0672 10.04C34.0672 9.01333 33.8805 7.97733 33.5072 6.932C33.1339 5.88667 32.6019 4.944 31.9112 4.104C31.2205 3.24533 30.3899 2.55467 29.4192 2.032C28.4672 1.49067 27.3939 1.22 26.1992 1.22C25.0419 1.22 24.0059 1.48133 23.0912 2.004C22.1765 2.508 21.3925 3.16133 20.7392 3.964C20.1045 4.76667 19.6192 5.66267 19.2832 6.652C18.9472 7.64133 18.7792 8.612 18.7792 9.564C18.7792 10.5907 18.9752 11.6267 19.3672 12.672C19.7592 13.6987 20.3005 14.632 20.9912 15.472C21.6819 16.312 22.4939 16.9933 23.4272 17.516C24.3792 18.0387 25.4152 18.3 26.5352 18.3ZM43.428 0.519999H47.404V0.799999H47.264C47.1146 0.799999 46.984 0.855999 46.872 0.967999C46.76 1.06133 46.6573 1.18267 46.564 1.332C46.4893 1.48133 46.4333 1.64 46.396 1.808C46.3586 1.976 46.34 2.12533 46.34 2.256V13.316C46.34 14.044 46.4146 14.716 46.564 15.332C46.7133 15.948 46.9653 16.48 47.32 16.928C47.6746 17.376 48.1413 17.7307 48.72 17.992C49.2986 18.2347 50.008 18.356 50.848 18.356C51.7813 18.356 52.528 18.2067 53.088 17.908C53.648 17.6093 54.0773 17.2267 54.376 16.76C54.6746 16.2747 54.8706 15.7333 54.964 15.136C55.0573 14.5387 55.104 13.9507 55.104 13.372V2.256C55.104 2.12533 55.0853 1.976 55.048 1.808C55.0106 1.64 54.9453 1.48133 54.852 1.332C54.7773 1.18267 54.684 1.06133 54.572 0.967999C54.46 0.855999 54.3386 0.799999 54.208 0.799999H54.068V0.519999H57.12V0.799999H56.98C56.8306 0.799999 56.7 0.855999 56.588 0.967999C56.4946 1.06133 56.4013 1.18267 56.308 1.332C56.2333 1.48133 56.1773 1.64 56.14 1.808C56.1026 1.976 56.084 2.12533 56.084 2.256V13.288C56.084 14.5013 55.9346 15.5 55.636 16.284C55.3373 17.0493 54.9266 17.656 54.404 18.104C53.8813 18.552 53.2653 18.86 52.556 19.028C51.8653 19.196 51.128 19.28 50.344 19.28C49.504 19.28 48.72 19.1867 47.992 19C47.2826 18.832 46.6666 18.524 46.144 18.076C45.6213 17.628 45.2106 17.0213 44.912 16.256C44.6133 15.472 44.464 14.492 44.464 13.316V2.256C44.464 2.12533 44.4453 1.976 44.408 1.808C44.3706 1.64 44.3053 1.48133 44.212 1.332C44.1373 1.18267 44.044 1.06133 43.932 0.967999C43.82 0.855999 43.6986 0.799999 43.568 0.799999H43.428V0.519999ZM67.0755 1.5C67.0755 1.612 67.1035 1.752 67.1595 1.92L72.0875 15.192L77.0155 1.78C77.0342 1.74267 77.0529 1.68667 77.0715 1.612C77.0902 1.53733 77.0995 1.48133 77.0995 1.444C77.0995 1.22 77.0062 1.06133 76.8195 0.967999C76.6515 0.855999 76.4929 0.799999 76.3435 0.799999V0.519999H79.3955V0.799999C79.1155 0.799999 78.8542 0.874666 78.6115 1.024C78.3875 1.17333 78.2102 1.42533 78.0795 1.78L71.6675 19.336L65.1155 1.864C65.0035 1.584 64.8355 1.34133 64.6115 1.136C64.4062 0.930666 64.1449 0.818665 63.8275 0.799999V0.519999H67.8035V0.799999C67.6355 0.799999 67.4675 0.865333 67.2995 0.996C67.1502 1.108 67.0755 1.276 67.0755 1.5ZM90.0758 18.72H90.2158V19H86.2678V18.72H86.4078C86.5385 18.72 86.6598 18.664 86.7718 18.552C86.8838 18.44 86.9771 18.3093 87.0518 18.16C87.1451 18.0107 87.2105 17.852 87.2478 17.684C87.2851 17.4973 87.3038 17.3293 87.3038 17.18V2.256C87.3038 2.12533 87.2851 1.976 87.2478 1.808C87.2105 1.64 87.1451 1.48133 87.0518 1.332C86.9771 1.18267 86.8838 1.06133 86.7718 0.967999C86.6598 0.855999 86.5385 0.799999 86.4078 0.799999H86.2678V0.519999H91.1398C93.0065 0.519999 94.4438 0.883999 95.4518 1.612C96.4785 2.34 96.9918 3.41333 96.9918 4.832C96.9918 5.54133 96.8705 6.16667 96.6278 6.708C96.4038 7.23067 96.0958 7.688 95.7038 8.08C95.3118 8.45333 94.8451 8.76133 94.3038 9.004C93.7811 9.228 93.2211 9.396 92.6238 9.508L94.6398 12.588C95.1251 13.3347 95.6198 14.072 96.1238 14.8C96.6278 15.5093 97.1225 16.2467 97.6078 17.012C97.7385 17.1987 97.8785 17.3947 98.0278 17.6C98.1958 17.8053 98.3638 17.992 98.5318 18.16C98.7185 18.328 98.9051 18.468 99.0918 18.58C99.2971 18.6733 99.5025 18.72 99.7078 18.72V19H98.5038C97.7571 19 97.1411 18.8227 96.6558 18.468C96.1891 18.0947 95.7971 17.6653 95.4798 17.18C94.6398 15.948 93.7998 14.6973 92.9598 13.428C92.1385 12.1587 91.3171 10.908 90.4958 9.676C90.2905 9.65733 90.0665 9.63867 89.8238 9.62C89.5998 9.58267 89.3851 9.54533 89.1798 9.508V17.18C89.1798 17.3293 89.1985 17.4973 89.2358 17.684C89.2731 17.852 89.3291 18.0107 89.4038 18.16C89.4971 18.3093 89.5905 18.44 89.6838 18.552C89.7958 18.664 89.9265 18.72 90.0758 18.72ZM89.1798 1.472V8.584H89.3198C89.4691 8.60267 89.7025 8.62133 90.0198 8.64C90.3558 8.64 90.7665 8.64 91.2518 8.64C91.6438 8.64 92.0545 8.584 92.4838 8.472C92.9318 8.34133 93.3425 8.136 93.7158 7.856C94.1078 7.55733 94.4251 7.17467 94.6678 6.708C94.9291 6.24133 95.0598 5.65333 95.0598 4.944C95.0598 4.23467 94.9198 3.656 94.6398 3.208C94.3785 2.76 94.0051 2.40533 93.5198 2.144C93.0531 1.88267 92.4838 1.70533 91.8118 1.612C91.1398 1.51867 90.4025 1.472 89.5998 1.472H89.1798ZM106.389 18.72H106.529C106.678 18.72 106.809 18.6733 106.921 18.58C107.033 18.468 107.126 18.3373 107.201 18.188C107.294 18.0387 107.36 17.88 107.397 17.712C107.453 17.544 107.481 17.3853 107.481 17.236V2.256C107.481 2.12533 107.453 1.976 107.397 1.808C107.36 1.64 107.294 1.48133 107.201 1.332C107.126 1.18267 107.033 1.06133 106.921 0.967999C106.809 0.855999 106.678 0.799999 106.529 0.799999H106.389V0.519999H117.169V3.124H116.889C116.852 2.69467 116.684 2.32133 116.385 2.004C116.086 1.668 115.62 1.5 114.985 1.5H109.357V8.584H114.005C114.434 8.584 114.789 8.45333 115.069 8.192C115.368 7.93067 115.517 7.62267 115.517 7.268H115.797V10.768H115.517C115.517 10.432 115.377 10.1427 115.097 9.9C114.817 9.65733 114.453 9.536 114.005 9.536H109.357V18.02H115.489C115.844 18.02 116.152 17.936 116.413 17.768C116.674 17.6 116.889 17.404 117.057 17.18C117.244 16.9373 117.374 16.6853 117.449 16.424C117.542 16.144 117.589 15.9107 117.589 15.724H117.869V19H106.389V18.72Z" fill="white"/>
</svg>
